<svg height="512" viewBox="0 0 48 60" width="512" xmlns="http://www.w3.org/2000/svg"><g id="Page-1" fill="none" fill-rule="evenodd"><g id="027---Shopping-Bag" fill="#999" fill-rule="nonzero"><path id="Shape" d="m.286 21.313c-.012.012-.028.016-.039.029s-.017.037-.029.053c-.06380464.0814404-.11411221.1726018-.149.27-.009.023-.021.044-.028.067-.03300453.1203801-.04317981.2458752-.03.37v.032l4.532 33.535c.34194488 2.4773561 2.45616452 4.3245792 4.957 4.331h29c2.5000747-.0074158 4.6131615-1.8543944 4.955-4.331l4.532-33.535c0-.011 0-.021 0-.032.0131798-.1241248.0030045-.2496199-.03-.37-.007-.023-.019-.044-.028-.067-.0348878-.0973982-.0851954-.1885596-.149-.27-.012-.016-.015-.038-.029-.053s-.027-.017-.039-.029-.03-.043-.05-.061l-2.558-2.273.896-8.879s0-.008 0-.012c.0109149-.11569692.0017808-.2324097-.027-.345 0-.007-.007-.013-.01-.021-.0116143-.03121688-.0253118-.06161861-.041-.091-.0305324-.08119817-.0719075-.15789343-.123-.228-.0259129-.03188212-.0539786-.06195245-.084-.09-.0531864-.05628996-.1129487-.10597999-.178-.148-.0375777-.02354059-.0766619-.04458594-.117-.063-.0737281-.03323303-.151334-.05708592-.231-.071-.0271747-.01016534-.0548823-.01884484-.083-.026-.016 0-.029 0-.044 0s-.042-.005-.062-.005h-13v-3c-.0033074-3.31233757-2.6876624-5.99669262-6-6h-4c-3.3123376.00330738-5.9966926 2.68766243-6 6v3h-13c-.02 0-.037.008-.056.009s-.028-.009-.044-.004c-.02811767.00715516-.05582528.01583466-.083.026-.07966599.01391408-.15727187.03776697-.231.071-.0403381.01841406-.07942234.03945941-.117.063-.06505129.04202001-.12481362.09171004-.178.148-.03002141.02804755-.05808705.05811788-.084.09-.05109248.07010657-.09246755.14680183-.123.228-.01568821.02938139-.02938569.05978312-.041.091 0 .008-.008.014-.01.021-.02878084.1125903-.03791488.22930308-.027.345v.012l.889 8.879-2.559 2.273c-.02.018-.036.042-.05.061zm41.191 34.087c-.2045981 1.488065-1.4749375 2.5975317-2.977 2.6h-29c-1.50054102-.0044605-2.7686131-1.1134371-2.973-2.6l-4.382-32.4h13.855v2.184c-1.3775467.4870363-2.2038721 1.8956662-1.9567957 3.3357331.2470764 1.4400668 1.4956868 2.492694 2.9567957 2.492694s2.7097193-1.0526272 2.9567957-2.492694c.2470764-1.4400669-.579249-2.8486968-1.9567957-3.3357331v-2.184h12v2.184c-1.3775467.4870363-2.2038721 1.8956662-1.9567957 3.3357331.2470764 1.4400668 1.4956868 2.492694 2.9567957 2.492694s2.7097193-1.0526272 2.9567957-2.492694c.2470764-1.4400669-.579249-2.8486968-1.9567957-3.3357331v-2.184h13.855zm-32.477-39.173v4.773h-5.37zm8 10.773c.5522847 0 1 .4477153 1 1s-.4477153 1-1 1-1-.4477153-1-1 .4477153-1 1-1zm13-6h-12v-1c0-2.209139 1.790861-4 4-4h4c2.209139 0 4 1.790861 4 4zm1 6c.5522847 0 1 .4477153 1 1s-.4477153 1-1 1-1-.4477153-1-1 .4477153-1 1-1zm8-10.773 5.37 4.773h-5.37zm.7-2.049 4.107-2.347-.552 5.507zm-21.7-8.178c0-2.209139 1.790861-4 4-4h4c2.209139 0 4 1.790861 4 4v3h-12zm23.234 5-3.734 2.132c-.0729974.0429358-.1402085.0950244-.2.155-.01.009-.017.021-.027.032-.0704462.0757516-.1284938.1621481-.172.256-.0106606.0188202-.0203402.0381794-.029.058-.0347783.0840807-.0576652.1725993-.068.263v.07c0 .023-.004.022-.004.034v7h-5v-1c-.0033074-3.3123376-2.6876624-5.9966926-6-6h-4c-3.3123376.0033074-5.9966926 2.6876624-6 6v1h-5v-7c0-.012-.006-.022-.007-.034s0-.046 0-.07c-.0103348-.0904007-.0332217-.1789193-.068-.263-.0086598-.0198206-.0183394-.0391798-.029-.058-.0435062-.0938519-.1015538-.1802484-.172-.256-.01-.011-.017-.023-.027-.032-.0597915-.0599756-.1270026-.1120642-.2-.155l-3.731-2.132zm-37.046.831 4.112 2.347-3.555 3.16z"/><path id="Shape" d="m29 34c-1.9526521.0142174-3.7927267.916222-5 2.451-1.2072733-1.534778-3.0473479-2.4367826-5-2.451-3.421 0-6 2.853-6 6.636 0 4.031 3.082 6.732 7.747 10.821.813.712 1.676 1.469 2.584 2.286.3803157.3423168.9576843.3423168 1.338 0 .908-.817 1.771-1.574 2.584-2.286 4.665-4.089 7.747-6.79 7.747-10.821 0-3.783-2.579-6.636-6-6.636zm-3.065 15.953c-.617.541-1.263 1.107-1.935 1.7-.672-.6-1.318-1.164-1.935-1.7-4.406-3.862-7.065-6.192-7.065-9.317 0-2.643 1.72-4.636 4-4.636 1.7487127.0855287 3.3156546 1.1067161 4.1 2.672.1665476.345726.5162495.5656496.9.566.383524-.0001651.7331671-.2196633.9-.565.7840767-1.5656715 2.3510704-2.5872749 4.1-2.673 2.28 0 4 1.993 4 4.636 0 3.125-2.659 5.455-7.065 9.317z"/></g></g></svg>